HIERARCHY
ROOT Hips
{
  OFFSET -0.0544378 18.5206 -1.30424
  CHANNELS 6 Xposition Yposition Zposition Zrotation Xrotation Yrotation
  JOINT LHipJoint
  {
    OFFSET 0 0 0
    CHANNELS 3 Zrotation Xrotation Yrotation
    JOINT LeftUpLeg
    {
      OFFSET 1.8 -1.4 0.085
      CHANNELS 3 Zrotation Xrotation Yrotation
      JOINT LeftLeg
      {
        OFFSET 2.215 -6 0
        CHANNELS 3 Zrotation Xrotation Yrotation
        JOINT LeftFoot
        {
          OFFSET 2.5 -6.9 0
          CHANNELS 3 Zrotation Xrotation Yrotation
          JOINT LeftToeBase
          {
            OFFSET 0.2 -0.5 1.95
            CHANNELS 3 Zrotation Xrotation Yrotation
            End Site
            {
              OFFSET 0 0 1
            }
          }
        }
      }
    }
  }
  JOINT RHipJoint
  {
    OFFSET 0 0 0
    CHANNELS 3 Zrotation Xrotation Yrotation
    JOINT RightUpLeg
    {
      OFFSET -1.8 -1.4 0.085
      CHANNELS 3 Zrotation Xrotation Yrotation
      JOINT RightLeg
      {
        OFFSET -2.215 -6 0
        CHANNELS 3 Zrotation Xrotation Yrotation
        JOINT RightFoot
        {
          OFFSET -2.5 -6.9 0
          CHANNELS 3 Zrotation Xrotation Yrotation
          JOINT RightToeBase
          {
            OFFSET -0.2 -0.5 1.95
            CHANNELS 3 Zrotation Xrotation Yrotation
            End Site
            {
              OFFSET 0 0 1
            }
          }
        }
      }
    }
  }
  JOINT LowerBack
  {
    OFFSET 0 0 0
    CHANNELS 3 Zrotation Xrotation Yrotation
    JOINT Spine
    {
      OFFSET -0.087 1.94 -0.2889
      CHANNELS 3 Zrotation Xrotation Yrotation
      JOINT Spine1
      {
        OFFSET 0 1.95 0.06
        CHANNELS 3 Zrotation Xrotation Yrotation
        JOINT Neck
        {
          OFFSET 0 0 0
          CHANNELS 3 Zrotation Xrotation Yrotation
          JOINT Neck1
          {
            OFFSET 0 1.6 0.34
            CHANNELS 3 Zrotation Xrotation Yrotation
            JOINT Head
            {
              OFFSET 0 1.667 -0.24
              CHANNELS 3 Zrotation Xrotation Yrotation
              End Site
              {
                OFFSET 0 1.686 -0.12
              }
            }
          }
        }
        JOINT LeftShoulder
        {
          OFFSET 0 0 0
          CHANNELS 3 Zrotation Xrotation Yrotation
          JOINT LeftArm
          {
            OFFSET 2.7 1.55 -0.73
            CHANNELS 3 Zrotation Xrotation Yrotation
            JOINT LeftForeArm
            {
              OFFSET 5.45 0 0
              CHANNELS 3 Zrotation Xrotation Yrotation
              JOINT LeftHand
              {
                OFFSET 3.45 0 0
                CHANNELS 3 Zrotation Xrotation Yrotation
                JOINT LeftFingerBase
                {
                  OFFSET 0 0 0
                  CHANNELS 3 Zrotation Xrotation Yrotation
                  JOINT LeftHandIndex1
                  {
                    OFFSET 0.75 0 0
                    CHANNELS 3 Zrotation Xrotation Yrotation
                    End Site
                    {
                      OFFSET 0.6 0 0
                    }
                  }
                }
                JOINT LThumb
                {
                  OFFSET 0 0 0
                  CHANNELS 3 Zrotation Xrotation Yrotation
                  End Site
                  {
                    OFFSET 0.59 0 0.59
                  }
                }
              }
            }
          }
        }
        JOINT RightShoulder
        {
          OFFSET 0 0 0
          CHANNELS 3 Zrotation Xrotation Yrotation
          JOINT RightArm
          {
            OFFSET -2.7 1.55 -0.73
            CHANNELS 3 Zrotation Xrotation Yrotation
            JOINT RightForeArm
            {
              OFFSET -5.45 0 0
              CHANNELS 3 Zrotation Xrotation Yrotation
              JOINT RightHand
              {
                OFFSET -3.45 0 0
                CHANNELS 3 Zrotation Xrotation Yrotation
                JOINT RightFingerBase
                {
                  OFFSET 0 0 0
                  CHANNELS 3 Zrotation Xrotation Yrotation
                  JOINT RightHandIndex1
                  {
                    OFFSET -0.75 0 0
                    CHANNELS 3 Zrotation Xrotation Yrotation
                    End Site
                    {
                      OFFSET -0.6 0 0
                    }
                  }
                }
                JOINT RThumb
                {
                  OFFSET 0 0 0
                  CHANNELS 3 Zrotation Xrotation Yrotation
                  End Site
                  {
                    OFFSET -0.59 0 0.59
                  }
                }
              }
            }
          }
        }
      }
    }
  }
}
MOTION
Frames:	8
Frame Time:	0.00833333
3.71008 18.206 10.0491 -9.02716 -4.76372 176.289 -2.5345e-015 0 -0 -35.0777 -10.7401 -14.6982 0.425405 -4.36474 31.6322 5.2213 0.0779305 0.835937 -3.18055e-015 5.00937e-014 -6.36111e-015 -2.5345e-015 0 -0 7.99591 -21.7031 -2.56641 8.27048 40.9962 -35.2709 -1.62923 -6.11934 1.49674 1.68541e-006 9.54166e-015 -0 -2.5345e-015 0 -0 -5.64649 13.1733 1.15466 -3.11507 -10.8182 1.01136 -2.63039 -11.0799 3.35668 -4.21597 25.846 4.52235 -3.30133 23.7766 9.018 62.464 2.04456 7.63355 -132.673 38.0128 11.9879 5.11155 2.56693 -69.6454 35.1085 -6.89842 -37.6191 -5.91058e-009 4.65278e-007 8.27537e-007 3.97569e-016 -4.47266e-015 -3.18055e-015 1.19271e-015 3.67752e-015 1.59028e-015 -5.10637 -0.0343246 -4.35031 87.371 14.4804 7.9997 -79.2256 33.0777 79.5481 -47.3721 -6.63582 20.8072 3.18055e-015 7.95139e-016 -3.18055e-015 3.18055e-015 1.59028e-015 -3.18055e-015 4.41391e-032 7.95139e-016 -3.18055e-015 
3.74039 18.2015 10.0253 -9.20917 -4.85842 177.94 -2.23633e-015 0 3.97569e-016 -35.3988 -10.4987 -14.847 0.113506 -3.88522 30.4013 5.05894 0.185336 0.856536 -3.97569e-016 5.24792e-014 -9.54166e-015 -2.23633e-015 0 3.97569e-016 7.52765 -21.2696 -3.18119 6.82504 39.7732 -36.1475 -3.00031 -6.75985 1.53857 1.68541e-006 1.27222e-014 -0 -2.23633e-015 0 3.97569e-016 -4.94242 12.8248 0.496847 -3.61501 -10.7171 0.457043 -2.86892 -10.8345 3.48997 -4.537 26.0822 4.75113 -3.07306 23.9291 9.08898 58.7311 2.62362 9.35361 -129.388 38.0084 9.20364 6.00532 3.98883 -69.0261 35.4441 -7.39664 -38.8204 -5.91058e-009 4.65278e-007 8.27537e-007 -3.97569e-016 5.41688e-015 -1.59028e-015 -9.93923e-016 7.40473e-015 -3.18055e-015 -4.79306 -0.0293118 -4.13962 88.0213 12.8959 6.66515 -77.1732 34.3111 78.9632 -49.2798 -6.78496 20.031 1.59028e-015 -1.59028e-015 6.36111e-015 1.59028e-015 -2.38542e-015 3.18055e-015 1.59028e-015 -7.95139e-016 6.36111e-015 
3.76867 18.1975 10.0023 -9.25018 -5.05252 179.651 -1.00635e-015 -1.59028e-015 2.48481e-016 -35.6285 -10.3615 -14.9944 -0.177788 -3.34353 29.0933 4.98029 0.308401 0.873205 -1.98785e-015 5.32743e-014 -3.18055e-015 -1.00635e-015 -1.59028e-015 2.48481e-016 7.15979 -20.7455 -3.66637 5.47434 38.3804 -36.7135 -4.27348 -7.08507 1.49664 1.68541e-006 6.36111e-015 3.18055e-015 -1.00635e-015 -1.59028e-015 2.48481e-016 -3.98582 12.3621 -0.184177 -4.22668 -10.5521 -0.0839614 -3.11443 -10.6014 3.62031 -4.86505 26.3057 4.97914 -2.78949 24.0544 9.12021 54.5511 3.00891 10.9537 -125.866 37.8398 6.26825 6.8956 5.42501 -68.5008 36.0497 -8.04104 -40.3638 -5.91058e-009 4.65278e-007 8.27537e-007 -2.98177e-015 -8.79622e-015 -3.18055e-015 -2.98177e-015 -2.33572e-015 9.54166e-015 -4.57218 -0.0227723 -3.97104 88.7095 11.0034 5.38943 -73.9685 35.6304 78.0679 -51.2744 -6.89911 19.1287 4.77083e-015 -2.38542e-015 6.36111e-015 4.77083e-015 0 -0 4.77083e-015 -1.59028e-015 6.36111e-015 
3.79963 18.1923 9.982 -9.22479 -5.25331 -178.581 8.19987e-016 0 -3.97569e-016 -35.8111 -10.2477 -15.1245 -0.454094 -2.76722 27.7432 4.93849 0.468301 0.896741 -2.38542e-015 5.32743e-014 -0 8.19987e-016 0 -3.97569e-016 6.89525 -20.0222 -4.08889 4.15063 36.6999 -37.1283 -5.38183 -7.3249 1.44027 1.68541e-006 1.27222e-014 -0 8.19987e-016 0 -3.97569e-016 -3.05065 11.7983 -0.879242 -4.80579 -10.2239 -0.638009 -3.32313 -10.3942 3.74044 -5.14862 26.504 5.18429 -2.53968 24.1615 9.17605 50.2455 3.22484 12.3411 -122.373 37.448 3.24813 7.87219 6.9034 -67.8611 36.897 -8.78071 -41.8646 -5.91058e-009 4.65278e-007 8.27537e-007 -3.18055e-015 3.97569e-016 6.36111e-015 -3.18055e-015 3.57812e-015 -6.36111e-015 -4.24692 -0.0162295 -3.83373 89.181 9.04115 4.25601 -70.3259 36.9091 76.9429 -53.1151 -7.01681 18.3476 -1.59028e-015 -3.97569e-016 -0 -1.59028e-015 3.97569e-016 -3.18055e-015 -1.59028e-015 0 -0 
3.8377 18.1844 9.96623 -9.21399 -5.37226 -176.757 5.96354e-016 -7.95139e-016 -3.97569e-016 -35.9882 -10.0794 -15.2229 -0.724616 -2.18398 26.381 4.89151 0.685127 0.937039 7.95139e-016 5.40694e-014 -0 5.96354e-016 -7.95139e-016 -3.97569e-016 6.74592 -18.9874 -4.51261 2.76883 34.603 -37.5577 -6.24761 -7.70278 1.43668 1.68541e-006 1.90833e-014 -3.18055e-015 5.96354e-016 -7.95139e-016 -3.97569e-016 -2.39529 11.1372 -1.5817 -5.2114 -9.62816 -1.23051 -3.45314 -10.2264 3.84362 -5.33827 26.6651 5.34547 -2.40999 24.2579 9.31884 46.1185 3.29235 13.4306 -119.181 36.7814 0.211162 9.00088 8.4885 -66.901 37.9958 -9.60123 -42.9477 -5.91058e-009 4.65278e-007 8.27537e-007 -1.59028e-015 1.59028e-015 6.36111e-015 -1.59028e-015 -3.18055e-015 -0 -3.62469 -0.0111459 -3.71703 89.2193 7.23825 3.33954 -66.9422 38.0336 75.6846 -54.5701 -7.17724 17.9278 -1.59028e-015 1.19271e-015 1.59028e-015 -1.59028e-015 1.98785e-015 1.59028e-015 -1.59028e-015 1.59028e-015 1.59028e-015 
3.8807 18.1775 9.95366 -9.18941 -5.43287 -174.83 4.96962e-016 0 -7.95139e-016 -36.1541 -9.86588 -15.2993 -0.987288 -1.56884 24.9635 4.89507 0.951709 0.984975 1.98785e-015 5.40694e-014 -3.18055e-015 4.96962e-016 0 -7.95139e-016 6.77456 -17.5488 -4.93947 1.25649 31.8357 -38.1969 -6.69299 -8.22259 1.48011 1.68541e-006 7.95139e-015 -3.18055e-015 4.96962e-016 0 -7.95139e-016 -1.91907 10.2461 -2.32121 -5.49073 -8.64185 -1.86853 -3.51739 -10.0984 3.93489 -5.44981 26.7884 5.47194 -2.39053 24.3317 9.54237 42.1118 3.16124 14.2924 -116.355 35.8286 -2.89641 10.2174 10.2364 -65.5032 39.5411 -10.6023 -43.6354 -5.91057e-009 4.65278e-007 8.27537e-007 1.59028e-015 -7.95139e-016 -6.36111e-015 6.36111e-015 -6.36111e-015 3.18055e-015 -2.68295 -0.005802 -3.61911 88.8449 5.51494 2.66529 -63.6097 39.056 74.2123 -55.6674 -7.37956 17.8661 -3.18055e-015 1.59028e-015 -0 -3.18055e-015 -5.56597e-015 -1.59028e-015 -3.18055e-015 1.98785e-015 -0 
3.9282 18.1691 9.94451 -9.14097 -5.45971 -172.843 1.78906e-015 -7.95139e-016 -7.95139e-016 -36.2916 -9.64069 -15.3531 -1.23326 -0.929187 23.5128 4.92156 1.26363 1.04339 -1.98785e-015 5.24792e-014 -0 1.78906e-015 -7.95139e-016 -7.95139e-016 6.93252 -15.8507 -5.33363 -0.30774 28.737 -38.8635 -6.91668 -8.76076 1.53986 1.68541e-006 6.36111e-015 -3.18055e-015 1.78906e-015 -7.95139e-016 -7.95139e-016 -1.58724 9.24187 -3.07335 -5.65404 -7.43131 -2.52954 -3.52615 -10.0026 4.01346 -5.49424 26.8813 5.56609 -2.44417 24.3888 9.81881 38.1374 2.87192 14.9083 -113.8 34.6244 -5.99649 11.4896 12.1189 -63.8721 41.3724 -11.7284 -44.1233 -5.91058e-009 4.65278e-007 8.27537e-007 -6.36111e-015 -7.95139e-016 6.36111e-015 -0 -9.54166e-015 -0 -1.54521 -0.000929003 -3.54735 88.2065 3.82823 2.1566 -60.1251 39.9562 72.5143 -56.5023 -7.60362 18.0371 3.18055e-015 0 3.18055e-015 3.18055e-015 -3.97569e-016 1.59028e-015 1.59028e-015 1.98785e-016 1.59028e-015 
3.98201 18.154 9.94022 -9.09601 -5.44861 -170.872 -1.98785e-016 0 -1.59028e-015 -36.3941 -9.41975 -15.374 -1.46054 -0.29779 22.087 4.89542 1.62456 1.12336 -5.96354e-015 5.24792e-014 -3.18055e-015 -1.98785e-016 0 -1.59028e-015 7.12165 -14.0918 -5.66766 -1.74495 25.7949 -39.2566 -7.24098 -9.22088 1.59852 1.68541e-006 6.36111e-015 -3.18055e-015 -1.98785e-016 0 -1.59028e-015 -1.46683 8.34247 -3.79206 -5.66101 -6.24145 -3.18983 -3.47414 -9.93289 4.07392 -5.46367 26.9501 5.62036 -2.55312 24.445 10.1335 34.1896 2.50526 15.197 -111.418 33.2194 -8.958 12.8478 14.0649 -62.268 43.191 -12.855 -44.5354 -5.91058e-009 4.65278e-007 8.27537e-007 4.77083e-015 3.18055e-015 -3.18055e-015 -0 -1.59028e-015 -0 -0.326173 0.00121841 -3.50902 87.4173 2.22702 1.72465 -56.55 40.6579 70.6694 -57.1173 -7.83531 18.3502 4.77083e-015 3.57812e-015 7.95139e-016 4.77083e-015 3.57812e-015 -7.95139e-016 3.18055e-015 3.77691e-015 1.59028e-015 
